<svg width="627" height="412" viewBox="0 0 627 412" fill="none" xmlns="http://www.w3.org/2000/svg">
<path d="M165.847 4.75177C180.721 -4.03574 204.65 -0.295892 218.446 13.1658C222.11 16.7182 224.913 17.0916 245.176 17.0916C266.518 17.0916 268.027 16.9044 275.572 11.8563C294.326 -1.04433 317.608 -0.857427 331.62 12.2303C336.793 16.9044 337.871 17.0916 360.936 17.0916C383.786 17.0916 385.296 16.905 390.039 12.4178C397.368 5.68697 411.595 0.264468 421.727 0.264468C454.924 0.264778 474.541 39.3406 451.691 60.2811C433.583 76.9213 410.732 77.2955 391.116 61.4031C384.865 56.3552 384.217 56.3553 357.056 56.3553H329.463L330.11 76.3611L330.757 96.5535L340.458 96.7401C354.038 96.927 365.032 101.602 370.421 109.641C374.302 115.437 374.949 119.364 374.949 136.378V156.384L382.709 160.871C393.271 167.228 412.242 185.737 417.2 194.712L421.295 202.19H434.877C471.308 202.19 520.242 222.383 548.481 249.12C579.091 277.726 597.846 311.381 601.08 342.23C602.373 356.066 602.373 356.066 609.918 358.309C625.007 362.61 632.121 386.354 622.852 402.059C620.481 406.173 616.6 409.726 613.797 410.473C610.992 411.034 577.15 411.596 538.349 411.596C468.721 411.596 467.858 411.596 463.546 407.482C457.942 402.434 456.218 394.207 457.295 378.876C458.158 365.788 462.685 359.244 470.877 359.244C473.679 359.244 476.696 358.122 477.99 356.813C481.008 353.635 478.852 341.295 474.972 338.49C473.248 337.368 471.954 335.313 471.954 334.004C471.954 328.956 452.337 316.615 438.972 312.876C421.511 308.202 416.337 309.884 403.835 324.094C388.529 341.108 372.577 350.83 340.888 362.235C327.523 366.909 279.021 367.096 263.931 362.235C236.339 353.448 213.488 340.547 201.417 326.898C189.129 313.063 187.404 311.941 180.506 313.25C176.842 313.811 162.398 314.372 148.386 314.372C122.95 314.372 122.734 314.372 122.734 318.672C122.734 324.094 111.093 334.564 101.177 338.304C96.2193 340.173 83.7164 341.295 64.7466 341.856C36.5072 342.604 35.8601 342.417 28.5308 337.555C24.4353 334.938 20.5548 331.199 19.9078 329.516C19.2611 327.834 17.5371 325.215 16.2437 323.72C14.7348 322.224 12.1477 316.242 10.2076 310.633C0.0758896 281.466 -2.94258 246.876 3.09333 225.561C4.81786 219.391 6.11213 211.726 6.3277 208.36C6.32776 205.182 7.18941 202.004 8.26715 201.256C9.34499 200.695 11.0699 197.516 11.9322 194.338C13.6568 187.233 17.7529 181.063 25.5132 173.585C30.9024 168.537 30.902 168.536 60.0035 168.536C85.009 168.536 90.3985 169.097 98.1588 172.463C107.428 176.202 119.5 189.103 121.872 197.89C123.165 202.004 123.812 202.19 151.62 202.19H179.86L187.404 191.721C195.164 181.063 211.548 165.545 223.62 157.318L230.734 152.644L231.165 132.077C231.596 114.876 232.242 110.763 235.907 106.463C241.727 99.7319 248.626 96.9273 262.853 95.8055L274.71 94.6834L275.356 77.1082C275.787 67.0123 274.925 58.599 273.847 57.6639C272.554 56.5421 261.129 55.9808 246.47 56.1678C222.758 56.5417 221.033 56.916 217.153 61.0291C201.632 78.2302 169.943 77.1083 153.56 58.5985C148.171 52.4286 147.524 50.185 147.524 36.7235C147.524 23.6357 148.171 21.0181 152.914 15.409C155.932 12.0436 161.751 7.18237 165.847 4.75177ZM589.223 368.593C587.068 366.91 488.125 365.227 480.146 366.722C474.11 368.031 468.505 377.006 471.523 380.372C474.547 383.55 578.66 383.363 582.325 380.184C585.127 377.754 590.516 377.193 590.516 379.25C590.3 382.428 584.48 387.289 578.876 389.159C571.76 391.403 491.573 392.338 481.008 390.281C474.326 388.972 473.894 389.159 474.541 393.272L475.188 397.572L539.858 397.76C576.934 397.76 605.604 397.012 607.331 396.077C610.995 393.646 610.564 376.071 606.684 371.584C604.528 368.966 601.942 368.405 597.415 369.153C593.966 369.714 590.301 369.527 589.223 368.593ZM452.768 216.4C432.505 211.165 424.314 213.783 431.858 223.131C437.247 229.675 436.816 270.06 431.211 278.847C429.056 282.4 426.685 288.009 425.823 291.187L424.313 296.797L438.541 299.227C453.63 301.845 465.918 308.201 477.99 319.606C487.475 328.581 491.355 335.873 492.864 346.718L494.158 355.691H507.307C514.637 355.691 535.978 355.878 554.948 356.065L589.439 356.439L588.792 346.156C588.36 340.547 586.636 333.069 584.912 329.516C583.187 326.151 581.894 322.037 581.894 320.728C581.894 316.801 567.019 290.066 559.69 280.718C549.127 267.443 517.439 241.08 503.211 233.788C490.709 227.431 476.481 222.57 452.768 216.4ZM360.074 148.718C359.858 146.287 248.2 145.913 246.47 148.344C245.824 149.091 246.039 151.709 246.901 154.327C247.979 158.253 246.901 159.375 241.081 162.18C232.889 165.732 203.141 191.346 200.123 197.329C199.045 199.386 195.811 204.621 192.794 208.734C189.991 212.848 187.619 217.896 187.404 219.953C187.404 222.01 185.895 227.058 184.17 231.171C179.644 242.202 180.075 262.955 185.249 275.108C195.811 300.723 210.901 319.606 231.38 332.694C243.236 340.36 259.834 347.839 265.008 348.026C266.733 348.026 272.554 349.335 277.943 351.017C294.542 356.066 333.344 352.139 352.314 343.539C362.877 338.678 380.768 326.899 386.158 321.29C389.391 318.111 394.997 312.501 398.446 308.949C410.086 296.796 420.217 269.685 420.217 249.867C420.217 222.57 408.577 201.442 379.691 176.763C364.386 163.862 359.643 158.44 359.859 155.262C360.075 152.831 360.289 149.839 360.074 148.718ZM452.553 282.587C456.218 282.587 459.02 283.335 459.02 284.269C459.02 285.204 461.176 286.327 463.978 286.888C475.187 289.505 510.755 320.728 510.756 328.207C510.756 329.702 511.834 331.573 512.912 332.134C515.498 333.442 515.93 344.286 513.559 344.287C512.481 344.287 509.248 339.238 506.014 333.442C497.823 318.672 481.223 303.154 462.038 292.683C453.203 287.824 446.092 283.525 446.086 283.148C446.086 282.774 449.104 282.587 452.553 282.587ZM21.4166 288.009C21.6321 298.105 26.806 315.119 31.5484 320.354C32.6262 321.663 34.3509 324.281 34.9976 325.964C36.0755 328.768 39.0935 329.329 54.8297 329.329C64.9605 329.329 73.1515 328.955 73.1529 328.394C73.1529 328.02 71.4284 324.842 69.0572 321.29C66.9015 317.924 64.315 312.315 63.4527 309.137C62.806 305.771 61.0813 302.779 60.0035 302.219C58.9257 301.47 58.0638 297.918 57.8482 294.179C57.6326 290.439 56.9858 285.204 56.1236 282.587C54.6147 278.1 53.7521 277.912 38.0162 277.725H21.4166V288.009ZM370.637 186.859C370.637 181.25 375.38 185.176 382.278 196.955C388.529 207.425 391.332 215.652 394.781 233.788C396.721 243.51 396.505 247.624 393.272 257.159C388.098 273.051 386.374 276.604 378.182 287.261C355.332 317.362 311.787 333.255 267.38 327.833C258.327 326.711 247.979 324.468 244.53 322.972C240.865 321.29 236.769 319.98 235.26 319.98C233.751 319.98 232.027 318.671 231.38 317.176C230.518 315.68 228.146 314.372 225.991 314.372C223.835 314.372 221.895 313.437 221.895 312.502C221.895 309.697 227.5 310.258 230.302 313.25C232.889 315.867 235.476 316.428 261.775 319.98C277.08 322.037 310.494 320.916 316.53 318.111C318.47 317.176 324.937 314.558 330.757 312.128C336.793 309.697 342.829 306.893 344.553 305.958C352.529 300.91 370.422 283.709 374.086 277.539C376.242 273.613 378.828 270.06 379.475 269.499C380.122 268.938 381.416 265.573 382.278 261.834C383.14 257.908 385.08 252.298 387.02 249.12C390.469 243.137 390.47 243.51 384.003 212.473C382.925 207.425 380.769 202.938 379.475 202.564C378.182 202.19 377.104 199.759 377.104 197.329C377.104 194.712 375.595 192.281 373.871 191.721C372.146 190.973 370.637 188.916 370.637 186.859ZM99.8834 191.159C89.9675 180.689 87.3808 182.372 75.3091 206.865C70.7823 216.401 66.6866 238.65 66.2554 258.281C65.8243 279.782 67.9796 292.122 75.0933 308.388C78.5423 316.615 88.4579 327.459 92.3384 327.46C95.1408 327.46 107.644 318.298 107.644 316.241C107.644 315.306 104.195 313.249 100.099 311.38C86.7341 305.957 77.4644 282.213 77.4644 254.168C77.4644 228.179 84.5785 211.352 98.5904 203.873C102.255 201.629 105.489 199.386 105.489 198.451C105.489 197.516 102.901 194.337 99.8834 191.159ZM137.392 214.344C98.8063 213.97 99.6683 213.783 93.8482 228.927C89.3213 240.893 89.3213 269.499 93.8482 282.774C95.7883 288.383 97.7276 293.805 98.1588 295.114C98.3745 296.236 100.962 298.479 103.764 300.162C107.86 302.218 112.387 302.592 128.124 301.096C138.902 300.162 154.638 299.975 163.26 300.722C179.859 301.844 181.799 300.723 176.841 292.309C168.865 278.661 165.847 267.629 165.847 251.737C165.847 239.398 166.71 233.602 169.296 230.61C171.021 228.367 172.315 223.878 171.883 220.7L171.237 214.718L137.392 214.344ZM120.147 276.417C123.381 275.856 130.279 275.856 135.453 276.23C140.626 276.604 147.309 276.977 150.327 276.977C159.38 276.977 152.698 280.904 141.919 281.839C123.381 283.521 104.195 278.66 120.147 276.417ZM67.3326 181.998C65.1763 182.185 56.7697 182.746 48.5787 183.306C34.3512 184.428 33.704 184.616 29.8238 190.972C27.4526 194.525 25.7281 198.825 25.7281 200.321C25.7279 201.817 24.2191 206.678 22.4947 210.978C20.5546 216.027 19.0462 227.993 18.8306 244.633L18.1832 270.434L34.3511 270.621C43.1894 270.808 51.5968 270.06 52.8902 269.125C54.6144 268.19 55.0456 264.638 54.399 259.964C52.89 250.802 57.2012 221.261 61.7281 209.669C63.4526 204.995 66.9018 198.077 69.273 194.151C71.6443 190.225 72.9373 185.924 72.2906 184.429C71.6438 182.933 69.4882 181.811 67.3326 181.998ZM474.11 243.323C477.775 243.323 480.577 244.071 480.577 245.193C480.577 246.128 482.948 247.437 485.966 248.184C488.984 248.745 491.355 250.055 491.355 250.803C491.356 251.737 493.512 253.046 496.098 253.794C500.84 255.102 502.35 255.851 512.912 264.263C516.361 267.255 518.301 269.499 517.223 269.499C515.067 269.498 504.505 264.264 502.133 262.02C501.485 261.459 493.51 257.906 484.458 253.98C475.19 250.055 467.645 245.942 467.643 245.007C467.643 244.072 470.661 243.323 474.11 243.323ZM273.631 181.998C273.847 179.567 275.141 180.128 278.805 184.055C283.116 188.729 283.548 190.037 281.392 195.272C276.003 207.986 269.32 217.147 265.008 217.147C261.991 217.147 260.05 219.204 258.326 224.439C256.601 229.3 252.721 234.161 247.117 238.088C229.009 250.988 222.542 251.924 213.057 243.137C207.452 237.901 206.805 236.032 206.805 225.561C206.805 219.017 207.884 213.034 208.961 212.473C210.255 211.726 211.117 215.839 211.117 223.317C211.117 234.348 211.548 235.471 217.584 239.21C221.032 241.453 224.913 243.323 225.991 243.323C230.087 243.323 238.709 233.413 240.003 227.43C241.727 219.765 255.093 206.116 264.362 202.751C272.338 199.946 281.392 187.233 276.434 185.924C274.925 185.363 273.632 183.68 273.631 181.998ZM253.153 177.697C266.949 174.893 266.518 176.95 252.075 182.746C250.35 183.494 246.685 185.55 244.314 187.046C241.727 188.728 237.416 191.346 234.83 192.842C228.794 196.394 217.584 206.304 217.584 208.174C217.583 209.108 216.721 209.669 215.428 209.669C211.117 209.669 213.488 204.621 221.033 196.768C230.087 187.794 243.452 179.754 253.153 177.697ZM287.859 157.318C307.043 157.318 318.899 158.066 318.901 159.187C318.901 160.309 306.613 161.057 286.35 161.057C265.44 161.057 254.446 160.309 255.308 159.187C256.172 158.066 269.321 157.318 287.859 157.318ZM329.463 157.318C333.128 157.318 336.577 158.066 337.224 159.187C338.086 160.309 335.5 161.057 330.973 161.057C326.662 161.057 323.212 160.122 323.212 159.187C323.213 158.066 326.015 157.318 329.463 157.318ZM292.817 106.837C257.464 106.837 255.955 107.023 251.212 111.137C245.823 115.811 241.943 130.582 245.392 133.573C248.626 136.378 320.625 135.63 324.505 132.825C326.877 131.142 329.033 131.142 333.128 132.825C340.242 135.629 359.211 135.443 360.29 132.638C363.523 124.225 351.883 108.706 342.182 108.706C337.44 108.706 337.008 109.454 337.008 117.494C337.224 123.103 336.146 126.468 334.421 127.029C332.266 127.59 331.619 125.72 332.05 119.551C332.481 115.063 331.835 110.389 330.972 109.08C329.893 107.397 319.114 106.837 292.817 106.837ZM291.308 81.035L291.955 94.6834H315.668L314.805 82.5311C314.59 75.8002 313.727 69.8165 313.081 68.8817C312.649 68.1339 307.26 67.5731 301.44 67.5731H290.662L291.308 81.035ZM421.511 13.3524C421.296 13.5393 417.415 14.6613 412.672 16.157C407.93 17.6529 401.679 21.3923 398.446 24.7576L393.056 30.5535L368.266 29.993L343.691 29.2449V44.202L369.343 44.3895C394.134 44.5764 395.427 44.7636 399.739 49.2508C405.559 55.2336 418.278 58.9731 427.547 57.4774C437.679 55.7946 444.146 48.5019 445.439 36.91C446.301 28.6837 445.87 26.6267 441.559 22.5135C438.757 19.896 433.152 16.7178 429.056 15.409C424.961 14.2874 421.728 13.3528 421.511 13.3524ZM195.38 15.5965C186.973 12.418 183.093 12.7913 174.901 17.0916C161.752 24.0095 158.303 40.2761 167.788 50.1854C172.746 55.4204 188.051 58.5982 195.811 56.1678C198.829 55.233 203.572 52.0553 206.159 49.2508C210.901 44.3896 211.979 44.2022 238.063 43.2674C252.937 42.7065 265.008 41.7716 265.008 40.8367V27.7488L240.434 29.0574L215.644 30.367L208.53 24.1961C204.65 20.6439 198.614 16.9053 195.38 15.5965ZM321.703 23.2615C315.451 17.2788 307.26 15.0354 297.344 16.5311C285.057 18.5877 277.943 29.9927 282.039 41.5848C285.919 52.9898 291.093 56.3553 303.811 56.3553C315.883 56.3553 320.194 53.9241 326.446 43.4539C330.757 35.9754 329.679 31.1141 321.703 23.2615Z" fill="#09D5FE" data-index="0"></path>
</svg>